#!OML:ASF F:\VICON\USERDATA\INSTALL\rory3\rory3.ASF
:FULLY-SPECIFIED
:DEGREES
114
root 0.6213576597695049 17.324035958596777 7.785694163358584 6.117568609342872 -1.6538013001132672 -1.1108906203985176
lfemur -25.49906760783138 8.646818097787113 -19.682489452769982
ltibia 42.249004733263675
lfoot -8.031989212296823 2.356465426482958
ltoes -20.319804416876355
rfemur -14.08098586877555 -2.8415272649738386 18.386937369628342
rtibia 22.869046062872144
rfoot -17.650415835812584 0.9175152049600306
rtoes 8.946943368253363
lowerback 1.8913169863937809 0.04510368116679102 -0.9754428086631579
upperback 3.5496759528517408 0.014326128977094593 1.2256641321397683
thorax 3.3890109492697293 -0.02777666230148173 1.3638231511913426
lowerneck -12.274585565810359 -0.3935787577289694 -2.238471456104626
upperneck 26.464576114022744 -0.5211911792918944 1.436369747939581
head 10.399730715827612 -0.2304263355659244 0.8691767340598379
lclavicle 1.094162227158521e-15 -2.214917075925339e-15
lhumerus -22.35107216056182 -4.56542399225626 83.95096619618886
lradius 24.88975624457169
lwrist 20.313623567416514
lhand -23.73413692002407 -6.795948192430391
lfingers 7.12502
lthumb 1.8810124482892157 23.238648011647392
rclavicle 1.0927709201658549e-15 -2.2170693103684762e-15
rhumerus -26.712217210874407 -8.73734421118328 -77.05277029639805
rradius 29.303691630968217
rwrist 34.138658350466024
rhand -18.62110975916004 -26.76166263079486
rfingers 7.12502
rthumb 7.905239624691125 -56.37400139596737
115
root 0.6193197369580427 17.33339529939497 7.718520189416176 6.048246232963439 -1.6593459458553992 -1.0819972776909035
lfemur -25.246551253422943 8.690982556379424 -19.6928270340378
ltibia 41.488420424894436
lfoot -8.11702847084528 2.3041043627945075
ltoes -20.513906828835246
rfemur -13.844297810518842 -2.9960459262370467 18.402367854757543
rtibia 22.755738150308844
rfoot -17.510589277704387 0.9404601623209214
rtoes 9.005634292109592
lowerback 2.3257749987959526 0.09136838203665114 -0.9330341017720531
upperback 3.789743288397407 0.09406795825910141 1.1977565362789586
thorax 3.4012132862511235 0.01185845944763246 1.316646070996219
lowerneck -12.18053256074202 -0.435898521247483 -2.2379085128267904
upperneck 26.512424515120127 -0.6041216802584868 1.4559684639366686
head 10.38350046352889 -0.26577280247562296 0.8737339324344098
lclavicle 1.0934846643309784e-15 -2.2157604067410376e-15
lhumerus -23.07780168104436 -4.248722712387587 84.16361589865586
lradius 24.2680111528594
lwrist 19.246703528272175
lhand -23.646468901678276 -6.761809478798208
lfingers 7.12502
lthumb 1.9132281582062687 23.23259358380051
rclavicle 1.0929114688296645e-15 -2.216894920708182e-15
rhumerus -26.770459387010593 -8.973035368983487 -76.93207568420245
rradius 28.678538870934187
rwrist 34.26526489265394
rhand -18.742974248460744 -26.7546263644032
rfingers 7.12502
rthumb 7.8238760000310625 -56.38058819281951
116
root 0.617425618171722 17.34270134641867 7.657480916098744 6.056415197445385 -1.7077613386742994 -1.0758135112441858
lfemur -25.08660555845871 8.757794771784447 -19.69923009678836
ltibia 40.854683898124165
lfoot -8.204772192143869 2.240300669718453
ltoes -20.87720329440789
rfemur -13.878978664104203 -3.041023757338007 18.44920260420801
rtibia 22.753086588485836
rfoot -17.364712193110293 0.9853243333796367
rtoes 9.175196355603887
lowerback 2.7047762097699763 0.16408794922470504 -0.8878064461489468
upperback 3.9711399489264716 0.19950028112236548 1.1637722740397622
thorax 3.392845010452442 0.07383991537596282 1.2565613798209618
lowerneck -12.100160272514527 -0.4706678761241822 -2.2281813075851415
upperneck 26.55229838811565 -0.685186972943528 1.4741473955078028
head 10.404869132151374 -0.30024504497441423 0.8777028065740924
lclavicle 1.0939124828340161e-15 -2.2152332584579234e-15
lhumerus -23.74588099515296 -3.8410703135427333 84.48472407447535
lradius 23.709004364232882
lwrist 18.267368444633657
lhand -23.61072882988492 -6.744206387998652
lfingers 7.12502
lthumb 1.9489694339717056 23.219156545924477
rclavicle 1.0929576681191232e-15 -2.216835152762872e-15
rhumerus -26.806142279414257 -9.306441945357355 -76.83106374172901
rradius 28.119323453649315
rwrist 34.36852485114407
rhand -18.838786233802193 -26.744268530569613
rfingers 7.12502
rthumb 7.732955198768202 -56.37440763977381
117
root 0.6139323267280002 17.347205468627454 7.532608438467174 5.978321303360072 -1.7705014337133118 -1.0772055703851766
lfemur -25.096896164158224 8.812555830604246 -19.700414506845114
ltibia 40.44973064213215
lfoot -8.261256094441682 2.188652511622348
ltoes -21.25539356545173
rfemur -13.933268571625629 -3.031912403689764 18.483681839302893
rtibia 22.906241995473273
rfoot -17.272834704492123 1.026926718094964
rtoes 9.193986985867806
lowerback 3.0207872810489396 0.22391420810791857 -0.880116371299543
upperback 4.107670002808808 0.2859468260096948 1.1319589245118569
thorax 3.384956269249007 0.11948666269095468 1.214013223531081
lowerneck -12.033237423433206 -0.48113218352330406 -2.2174857985339544
upperneck 26.552687666404335 -0.7253147461837712 1.4713454069339493
head 10.376295688393322 -0.3206518975505951 0.8783657919285881
lclavicle 1.0943301352347149e-15 -2.214723954016262e-15
lhumerus -24.13070951685926 -3.285838940729846 84.97598041253065
lradius 23.145646239169817
lwrist 17.241994742551114
lhand -23.615508778787945 -6.714366051048284
lfingers 7.12502
lthumb 1.9928131037641816 23.243428411438494
rclavicle 1.093363590835595e-15 -2.2163315273573096e-15
rhumerus -26.858228793292447 -9.63705137075205 -76.79297745086755
rradius 27.716908257230262
rwrist 34.42132607183332
rhand -18.87408765533931 -26.702105948970853
rfingers 7.12502
rthumb 7.693114490251278 -56.34012926649062
118
root 0.60927643298899 17.346830663481967 7.4156729247997335 5.892945706986143 -1.8545785632105571 -1.0542676523711554
lfemur -25.159102285453265 8.872805177025741 -19.74515605880303
ltibia 40.2556627924526
lfoot -8.233288126916046 2.1051769338562263
ltoes -21.28608284277375
rfemur -14.043089357911207 -3.0361684435390313 18.48404104619947
rtibia 23.04583864986341
rfoot -17.280479567039432 1.1290661192642735
rtoes 9.090942763778655
lowerback 3.3234150924359516 0.2794134769826209 -0.8916277587629482
upperback 4.203300656766154 0.36565714185218323 1.087228332758094
thorax 3.362144285635335 0.1591106823999943 1.17032439483875
lowerneck -12.011322816315705 -0.47761811196180587 -2.2058536844758487
upperneck 26.521486214600376 -0.7368581379002994 1.4713099861000705
head 10.361469449873642 -0.3273924287336763 0.8803166784402215
lclavicle 1.0941166770700822e-15 -2.2149641957070754e-15
lhumerus -24.1535012108249 -2.697912340216595 85.50286854647388
lradius 22.625512454687794
lwrist 16.11615585371093
lhand -23.65573572848789 -6.701982057588367
lfingers 7.12502
lthumb 2.0353705855029576 23.329047750105673
rclavicle 1.0934368542764712e-15 -2.216239826681953e-15
rhumerus -26.924143476993603 -9.840032861244605 -76.84916604502288
rradius 27.452559526486358
rwrist 34.44392451805227
rhand -18.872871275758758 -26.65002388987298
rfingers 7.12502
rthumb 7.685911996503379 -56.31098429124809
119
root 0.6049238819697587 17.35136808112693 7.318969021182844 5.849204431278532 -1.9654333927159913 -1.0487484007797536
lfemur -25.261594095660268 8.955065403161894 -19.776452861148066
ltibia 40.209187433964104
lfoot -8.201883220093688 2.0495289077937437
ltoes -21.19209157793541
rfemur -14.216076435406617 -3.0211617640641184 18.498540779335002
rtibia 23.232808721450354
rfoot -17.283742340875257 1.2504588213466392
rtoes 8.958441772869065
lowerback 3.5615555541841823 0.3274506802272007 -0.8969991895730705
upperback 4.246191856583796 0.4219518392748959 1.0398557099143986
thorax 3.3274534874690556 0.18999385345604755 1.1239625362646053
lowerneck -12.00483833448831 -0.4611895723029181 -2.1839366135318543
upperneck 26.47605473399719 -0.726207477143114 1.4494991501946115
head 10.363476847732638 -0.3278893543418684 0.8778215714446362
lclavicle 1.0944072740571973e-15 -2.214596923145281e-15
lhumerus -24.02118669122574 -2.2549193145359316 85.97765952947162
lradius 22.215933081855013
lwrist 15.135066606466275
lhand -23.68233099029501 -6.70157742111342
lfingers 7.12502
lthumb 2.068463706462218 23.37216591485051
rclavicle 1.0933111575431513e-15 -2.2163958816399565e-15
rhumerus -27.03297792453726 -10.040108734569623 -76.9728462299606
rradius 27.374110179140757
rwrist 34.36707729829968
rhand -18.864609945630132 -26.604963611123114
rfingers 7.12502
rthumb 7.6728631313288425 -56.28381511162081
120
root 0.6006788364142037 17.34731546951918 7.193404925100277 5.755961253452265 -2.0540619660753543 -1.0435058723169828
lfemur -25.45729327321981 9.033295340418542 -19.809573892592997
ltibia 40.25253942368069
lfoot -8.203997972552179 2.0383210223245456
ltoes -21.053671261839895
rfemur -14.43687021885108 -3.020035615979541 18.504979021617224
rtibia 23.47972826569419
rfoot -17.238156813225448 1.3738064956988496
rtoes 8.804945204003982
lowerback 3.73864305100273 0.3472814721485089 -0.9390746106022523
upperback 4.237782188639663 0.4457117545691568 0.9901374199379057
thorax 3.3027718790630987 0.2010976012173041 1.0970204204628184
lowerneck -12.001920511400405 -0.43437395609046153 -2.1595205093849446
upperneck 26.422173379593488 -0.6985632052212796 1.4176181784746564
head 10.33905259517696 -0.3231498115934948 0.8743818572979188
lclavicle 1.0941994327104076e-15 -2.2148634570501276e-15
lhumerus -23.871913192636868 -2.1287092186106866 86.33895970531131
lradius 22.025693719590105
lwrist 14.536143138360323
lhand -23.7132047144557 -6.6710544870683695
lfingers 7.12502
lthumb 2.1043228142694153 23.41161162690051
rclavicle 1.0932957985656085e-15 -2.216415572253646e-15
rhumerus -27.204010350232267 -10.256821756780926 -77.12436814969983
rradius 27.37661524337372
rwrist 34.252061523295716
rhand -18.828009326431474 -26.54846453112514
rfingers 7.12502
rthumb 7.694023093229115 -56.23547081736672
121
root 0.5951303634128435 17.337093652691063 7.067069109823488 5.6412581203010275 -2.109842749417754 -1.056336789266932
lfemur -25.629340940195842 9.090942181980331 -19.810695137193076
ltibia 40.368898605268626
lfoot -8.221617532084931 2.0179104024627232
ltoes -20.7869507166098
rfemur -14.625795500543184 -3.055011221342165 18.540371515743825
rtibia 23.760211187533574
rfoot -17.239834644929083 1.4876618713532044
rtoes 8.664747229585565
lowerback 3.8672652793095312 0.34518380154973555 -0.9751406480977167
upperback 4.2178213128386215 0.44111311353282523 0.9575015661872955
thorax 3.2867259832758924 0.20119010454447653 1.077324724322237
lowerneck -11.999639977996544 -0.4072272694103079 -2.1352349006413167
upperneck 26.384782124942845 -0.6760448744903114 1.4016129453822876
head 10.332695699641818 -0.3183493342769428 0.8756166137923547
lclavicle 1.0944396364803333e-15 -2.2145790472927836e-15
lhumerus -23.78946236704396 -2.3217545643056123 86.52090953672203
lradius 22.091835291736583
lwrist 14.26369849632168
lhand -23.74689130706949 -6.649127639202731
lfingers 7.12502
lthumb 2.1152676509071853 23.402837227968245
rclavicle 1.0935151688915267e-15 -2.2161424917484484e-15
rhumerus -27.41916567099872 -10.519761897252383 -77.26797569996705
rradius 27.41977622247388
rwrist 34.142163572399674
rhand -18.7740066465534 -26.495369406328546
rfingers 7.12502
rthumb 7.72695268149176 -56.18457758308538
